<svg width="910" height="589" viewBox="0 0 910 589" fill="none" xmlns="http://www.w3.org/2000/svg">
<path d="M0 170.077V2.41211H49.408C66.668 2.41211 80.161 6.24611 89.875 13.9271C99.589 21.6081 104.439 33.0431 104.439 48.2431C104.439 56.2231 102.678 63.3081 99.155 69.4861C95.619 75.6641 90.322 80.2971 83.25 83.3721C92.083 85.4311 98.613 89.9291 102.84 96.8381C107.053 103.747 109.167 111.849 109.167 121.142C109.167 137.182 104.574 149.348 95.403 157.639C86.231 165.93 73.09 170.076 55.966 170.076H0V170.077ZM32.826 73.2391H50.898C57.577 73.0761 62.698 71.1391 66.275 67.4001C69.838 63.6741 71.626 58.2961 71.626 51.2921C71.626 43.4481 69.784 37.6901 66.099 34.0321C62.414 30.3741 56.846 28.5591 49.408 28.5591H32.826V73.2391ZM32.826 96.1481V143.93H55.965C62.874 143.93 68.036 142.02 71.45 138.186C74.864 134.338 76.585 128.621 76.585 121.021C76.585 113.041 75.122 106.891 72.196 102.596C69.283 98.3011 64.609 96.1471 58.161 96.1471H32.826V96.1481Z" fill="#1A1A1A"/>
<path d="M217.425 96.4861H161.121V143.93H227.328V170.077H128.295V2.41211H227.098V28.5591H161.121V70.3531H217.425V96.4861Z" fill="#1A1A1A"/>
<path d="M284.581 170.077H251.985V2.41211H284.581V170.077Z" fill="#1A1A1A"/>
<path d="M350.49 143.93H411.752V170.077H317.664V2.41211H350.49V143.93Z" fill="#1A1A1A"/>
<path d="M502.435 126.318C502.435 119.788 500.755 114.626 497.368 110.833C493.995 107.026 488.047 103.287 479.526 99.602C462.104 93.533 449.03 86.651 440.319 78.928C431.608 71.219 427.246 60.408 427.246 46.522C427.246 32.771 432.313 21.581 442.446 12.951C452.58 4.308 465.518 0 481.246 0C497.219 0 510.197 4.809 520.182 14.442C530.153 24.074 534.989 36.227 534.678 50.885L534.461 51.589H502.678C502.678 43.908 500.754 37.689 496.907 32.92C493.073 28.165 487.668 25.794 480.677 25.794C474.147 25.794 469.067 27.758 465.422 31.714C461.778 35.67 459.949 40.642 459.949 46.63C459.949 52.157 461.981 56.709 466.045 60.272C470.123 63.849 477.181 67.818 487.233 72.194C503.138 77.572 515.087 84.387 523.107 92.637C531.127 100.887 535.137 112.037 535.137 126.086C535.137 140.595 530.314 151.962 520.641 160.172C510.968 168.382 498.098 172.487 482.057 172.487C466.084 172.487 452.252 167.827 440.547 158.506C428.842 149.172 423.179 135.8 423.558 118.378L423.788 117.674H455.693C455.693 128.051 457.874 135.489 462.25 140.028C466.626 144.553 473.224 146.815 482.057 146.815C488.966 146.815 494.087 144.973 497.434 141.288C500.769 137.603 502.435 132.618 502.435 126.318Z" fill="#1A1A1A"/>
<path d="M0 378.168V210.503H49.408C66.668 210.503 80.161 214.337 89.875 222.018C99.589 229.699 104.439 241.134 104.439 256.334C104.439 264.314 102.678 271.399 99.155 277.577C95.619 283.755 90.322 288.388 83.25 291.463C92.083 293.522 98.613 298.02 102.84 304.929C107.053 311.838 109.167 319.94 109.167 329.233C109.167 345.273 104.574 357.439 95.403 365.73C86.232 374.021 73.09 378.167 55.966 378.167H0V378.168ZM32.826 281.33H50.898C57.577 281.167 62.698 279.23 66.275 275.491C69.838 271.765 71.626 266.387 71.626 259.383C71.626 251.539 69.784 245.781 66.099 242.123C62.414 238.465 56.846 236.65 49.408 236.65H32.826V281.33ZM32.826 304.239V352.021H55.965C62.874 352.021 68.036 350.111 71.45 346.277C74.864 342.429 76.585 336.712 76.585 329.112C76.585 321.132 75.122 314.982 72.196 310.687C69.283 306.392 64.609 304.238 58.161 304.238H32.826V304.239Z" fill="#1A1A1A"/>
<path d="M217.425 304.577H161.121V352.021H227.328V378.168H128.295V210.503H227.098V236.65H161.121V278.444H217.425V304.577Z" fill="#1A1A1A"/>
<path d="M284.743 352.021H346.005V378.168H251.917V210.503H284.743V352.021Z" fill="#1A1A1A"/>
<path d="M401.077 352.021H462.339V378.168H368.251V210.503H401.077V352.021Z" fill="#1A1A1A"/>
<path d="M573.713 304.577H517.41V352.021H583.617V378.168H484.584V210.503H583.387V236.65H517.41V278.444H573.714L573.713 304.577Z" fill="#1A1A1A"/>
<path d="M642.576 352.021H706.941V378.168H605.726V361.694L668.6 236.65H605.035V210.503H705.91V226.394L642.576 352.021Z" fill="#1A1A1A"/>
<path d="M809.387 342.348H765.168L756.199 378.168H723.143L770.356 210.503H804.442L851.547 378.168H818.491L809.387 342.348ZM771.861 316.215H802.722L787.63 256.917H786.939L771.861 316.215Z" fill="#1A1A1A"/>
<path d="M117.58 586.259H84.876V516.814H32.826V586.259H0V418.594H32.826V490.681H84.876V418.594H117.58V586.259Z" fill="#1A1A1A"/>
<path d="M256.919 526.026C256.919 545.684 251.581 561.033 240.906 572.088C230.231 583.143 216.033 588.67 198.299 588.67C180.565 588.67 166.394 583.143 155.8 572.088C145.206 561.033 139.922 545.684 139.922 526.026V479.043C139.922 459.48 145.206 444.104 155.8 432.927C166.394 421.764 180.524 416.182 198.177 416.182C215.843 416.182 230.041 421.764 240.798 432.927C251.541 444.104 256.92 459.48 256.92 479.043V526.026H256.919ZM224.323 478.691C224.323 466.688 222.101 457.624 217.644 451.501C213.187 445.377 206.711 442.316 198.176 442.316C189.587 442.316 183.138 445.364 178.83 451.434C174.535 457.517 172.381 466.607 172.381 478.692V526.041C172.381 538.207 174.576 547.338 178.952 553.421C183.328 559.504 189.777 562.539 198.298 562.539C206.738 562.539 213.187 559.504 217.644 553.421C222.101 547.338 224.323 538.207 224.323 526.041V478.691Z" fill="#1A1A1A"/>
<path d="M397.893 586.259H365.311L314.06 479.043L313.383 479.287V586.259H280.557V418.594H313.383L364.62 525.688L365.311 525.458V418.594H397.893V586.259Z" fill="#1A1A1A"/>
<path d="M518.954 512.668H462.65V560.112H528.857V586.259H429.824V418.594H528.627V444.741H462.65V486.535H518.954V512.668Z" fill="#1A1A1A"/>
<path d="M626.766 542.5C626.766 535.97 625.086 530.808 621.699 527.015C618.326 523.208 612.378 519.469 603.857 515.784C586.435 509.715 573.361 502.832 564.65 495.11C555.939 487.401 551.577 476.59 551.577 462.704C551.577 448.953 556.644 437.763 566.777 429.133C576.911 420.49 589.849 416.181 605.577 416.181C621.55 416.181 634.528 420.99 644.513 430.623C654.484 440.255 659.32 452.407 659.009 467.066L658.792 467.77H627.01C627.01 460.089 625.086 453.87 621.239 449.101C617.405 444.346 612 441.975 605.009 441.975C598.479 441.975 593.399 443.939 589.754 447.895C586.11 451.851 584.281 456.823 584.281 462.811C584.281 468.338 586.313 472.89 590.377 476.453C594.455 480.03 601.513 483.999 611.565 488.375C627.47 493.753 639.419 500.568 647.439 508.818C655.459 517.068 659.469 528.218 659.469 542.267C659.469 556.776 654.646 568.143 644.973 576.353C635.3 584.563 622.43 588.668 606.389 588.668C590.416 588.668 576.584 584.008 564.879 574.687C553.174 565.353 547.511 551.981 547.89 534.559L548.12 533.854H580.025C580.025 544.232 582.206 551.669 586.582 556.208C590.958 560.733 597.556 562.995 606.389 562.995C613.298 562.995 618.419 561.153 621.766 557.468C625.1 553.785 626.766 548.8 626.766 542.5Z" fill="#1A1A1A"/>
<path d="M782.915 444.741H745.144V586.259H712.44V444.741H674.886V418.594H782.915V444.741Z" fill="#1A1A1A"/>
<path d="M867.737 550.439H823.518L814.549 586.259H781.493L828.706 418.594H862.792L909.897 586.259H876.841L867.737 550.439ZM830.21 524.306H861.071L845.979 465.008H845.288L830.21 524.306Z" fill="#1A1A1A"/>
</svg>
