<svg width="1541" height="682" viewBox="0 0 1541 682" fill="none" xmlns="http://www.w3.org/2000/svg">
<path d="M0 679.86V556.852H34.301C45.906 556.852 54.963 559.62 61.463 565.134C67.973 570.648 71.223 578.93 71.223 589.979C71.223 595.829 69.745 601.007 66.789 605.473C63.833 609.96 59.734 613.23 54.492 615.327C61.138 616.774 66.254 620.254 69.829 625.747C73.404 631.24 75.196 637.677 75.196 645.057C75.196 656.379 71.999 665.017 65.604 670.95C59.209 676.883 50.383 679.861 39.124 679.861L0 679.86ZM17.151 610.169H35.989C41.629 610.169 46.042 608.45 49.261 605.032C52.469 601.615 54.073 596.667 54.073 590.23C54.073 583.437 52.396 578.342 49.041 574.946C45.697 571.57 40.78 569.872 34.302 569.872H17.152V610.169H17.151ZM17.151 622.497V666.84H39.123C45.203 666.84 49.889 664.974 53.181 661.242C56.483 657.489 58.129 652.122 58.129 645.14C58.129 638.221 56.714 632.707 53.904 628.619C51.084 624.531 46.744 622.497 40.895 622.497H17.151Z" fill="#1A1A1A"/>
<path d="M174.858 622.665H129.236V666.841H182.123V679.861H112.086V556.852H181.62V569.872H129.236V609.666H174.858V622.665Z" fill="#1A1A1A"/>
<path d="M233.751 666.84H281.742V679.86H216.6V556.852H233.75V666.84H233.751Z" fill="#1A1A1A"/>
<path d="M331.401 666.84H379.392V679.86H314.25V556.852H331.4V666.84H331.401Z" fill="#1A1A1A"/>
<path d="M474.662 622.665H429.04V666.841H481.927V679.861H411.89V556.852H481.424V569.872H429.04V609.666H474.662V622.665Z" fill="#1A1A1A"/>
<path d="M531.312 666.84H585.719V679.86H513.072V669.293L565.529 569.872H513.407V556.852H584.031V567.083L531.312 666.84Z" fill="#1A1A1A"/>
<path d="M678.589 648.767H639.393L630.44 679.86H613.038L650.882 556.852H667.435L704.954 679.86H687.542L678.589 648.767ZM643.366 635.16H674.71L659.331 581.445H658.817L643.366 635.16Z" fill="#1A1A1A"/>
<path d="M872.347 679.86H855.302V625.537H808.149V679.86H790.999V556.852H808.149V612.538H855.302V556.852H872.347V679.86Z" fill="#1A1A1A"/>
<path d="M991.874 635.349C991.874 649.92 988.1 661.284 980.552 669.419C973.004 677.575 962.899 681.642 950.235 681.642C937.739 681.642 927.78 677.575 920.421 669.419C913.041 661.284 909.351 649.921 909.351 635.349V601.552C909.351 587.023 913.041 575.638 920.463 567.419C927.864 559.2 937.781 555.091 950.235 555.091C962.857 555.091 972.941 559.2 980.51 567.419C988.1 575.638 991.874 587.022 991.874 601.552V635.349ZM974.808 601.3C974.808 590.586 972.669 582.472 968.392 576.916C964.115 571.381 958.056 568.592 950.235 568.592C942.52 568.592 936.607 571.38 932.498 576.916C928.389 582.472 926.334 590.586 926.334 601.3V635.349C926.334 646.147 928.389 654.344 932.54 659.921C936.67 665.498 942.583 668.286 950.235 668.286C958.118 668.286 964.178 665.518 968.434 659.962C972.69 654.427 974.808 646.208 974.808 635.348V601.3Z" fill="#1A1A1A"/>
<path d="M1110.21 679.86H1093.16L1046.51 588.364L1046.01 588.532V679.86H1028.86V556.852H1046.01L1092.64 648.096L1093.16 647.928V556.851H1110.21V679.86Z" fill="#1A1A1A"/>
<path d="M1214.64 622.665H1169.02V666.841H1221.91V679.861H1151.87V556.852H1221.39V569.872H1169.02V609.666H1214.64V622.665Z" fill="#1A1A1A"/>
<path d="M1311.78 648.851C1311.78 643.064 1310.14 638.305 1306.87 634.573C1303.6 630.862 1297.9 627.591 1289.72 624.782C1278 621.239 1269.03 616.605 1262.78 610.902C1256.51 605.199 1253.39 597.63 1253.39 588.238C1253.39 578.573 1256.87 570.626 1263.83 564.4C1270.79 558.194 1279.72 555.091 1290.64 555.091C1302.03 555.091 1311.19 558.676 1318.15 565.847C1325.11 573.038 1328.47 581.697 1328.24 591.824L1328.07 592.348H1311.61C1311.61 585.157 1309.76 579.328 1306.07 574.841C1302.38 570.333 1297.18 568.09 1290.48 568.09C1284.12 568.09 1279.2 569.956 1275.74 573.709C1272.28 577.462 1270.54 582.221 1270.54 588.029C1270.54 593.271 1272.4 597.673 1276.11 601.259C1279.85 604.823 1285.97 608.073 1294.54 611.008C1305.74 614.509 1314.27 619.269 1320.14 625.307C1325.99 631.345 1328.93 639.145 1328.93 648.726C1328.93 658.832 1325.45 666.841 1318.53 672.753C1311.61 678.665 1302.51 681.643 1291.25 681.643C1280.27 681.643 1270.66 678.372 1262.49 671.873C1254.29 665.373 1250.33 656.211 1250.6 644.386L1250.77 643.862H1267.24C1267.24 652.29 1269.47 658.517 1273.89 662.564C1278.29 666.61 1284.08 668.623 1291.25 668.623C1297.67 668.623 1302.7 666.841 1306.32 663.256C1309.95 659.691 1311.78 654.89 1311.78 648.851Z" fill="#1A1A1A"/>
<path d="M1434.66 569.872H1403.06V679.86H1385.91V569.872H1354.48V556.852H1434.66V569.872Z" fill="#1A1A1A"/>
<path d="M1513.68 648.767H1474.47L1465.52 679.86H1448.12L1485.96 556.852H1502.52L1540.03 679.86H1522.63L1513.68 648.767ZM1478.43 635.16H1509.78L1494.41 581.445H1493.91L1478.43 635.16Z" fill="#1A1A1A"/>
<path d="M0 383.686V5.43994H111.463C150.4 5.43994 180.841 14.0889 202.754 31.4179C224.667 48.7469 235.609 74.5419 235.609 108.834C235.609 126.836 231.636 142.82 223.69 156.757C215.713 170.694 203.763 181.146 187.809 188.084C207.736 192.73 222.467 202.876 232.003 218.463C241.508 234.05 246.276 252.327 246.276 273.293C246.276 309.479 235.915 336.925 215.224 355.629C194.533 374.333 164.887 383.686 126.255 383.686H0ZM74.054 165.223H114.825C129.892 164.856 141.445 160.486 149.514 152.05C157.552 143.645 161.586 131.512 161.586 115.711C161.586 98.0149 157.429 85.0259 149.116 76.7739C140.803 68.5219 128.242 64.4269 111.463 64.4269H74.054V165.223ZM74.054 216.905V324.7H126.255C141.842 324.7 153.487 320.391 161.188 311.741C168.89 303.061 172.771 290.164 172.771 273.018C172.771 255.016 169.47 241.141 162.869 231.453C156.298 221.765 145.754 216.905 131.206 216.905H74.054Z" fill="#1A1A1A"/>
<path d="M586.54 217.669H459.521V324.7H608.882V383.686H385.467V5.43994H608.362V64.4259H459.521V158.712H586.54V217.669Z" fill="#1A1A1A"/>
<path d="M821.859 383.686H748.325V195.48C748.325 175.174 764.786 158.713 785.092 158.713C805.398 158.713 821.859 175.174 821.859 195.48V383.686Z" fill="#1A1A1A"/>
<path d="M785.091 64.427C764.785 64.427 748.324 47.966 748.324 27.66V5.44104H821.858V27.66C821.859 47.966 805.397 64.427 785.091 64.427Z" fill="#1A1A1A"/>
<path d="M1053.9 324.7H1192.11V383.686H979.85V5.43994H1053.9V324.7Z" fill="#1A1A1A"/>
<path d="M1464.99 284.968C1464.99 270.237 1461.2 258.592 1453.56 250.035C1445.95 241.447 1432.54 233.011 1413.31 224.698C1374.01 211.006 1344.51 195.48 1324.86 178.059C1305.21 160.669 1295.37 136.28 1295.37 104.953C1295.37 73.932 1306.8 48.687 1329.66 29.218C1352.52 9.71899 1381.71 0 1417.19 0C1453.23 0 1482.51 10.85 1505.03 32.58C1527.53 54.31 1538.44 81.725 1537.73 114.794L1537.24 116.383H1465.54C1465.54 99.054 1461.2 85.026 1452.52 74.267C1443.87 63.539 1431.68 58.191 1415.91 58.191C1401.18 58.191 1389.72 62.623 1381.5 71.547C1373.27 80.471 1369.15 91.688 1369.15 105.197C1369.15 117.667 1373.73 127.936 1382.9 135.974C1392.1 144.043 1408.02 152.998 1430.7 162.869C1466.58 175.002 1493.54 190.376 1511.63 208.988C1529.72 227.601 1538.77 252.754 1538.77 284.448C1538.77 317.181 1527.89 342.823 1506.07 361.344C1484.25 379.865 1455.21 389.126 1419.03 389.126C1382.99 389.126 1351.79 378.612 1325.38 357.585C1298.98 336.527 1286.2 306.362 1287.06 267.058L1287.58 265.469H1359.55C1359.55 288.88 1364.47 305.659 1374.34 315.898C1384.22 326.106 1399.1 331.21 1419.03 331.21C1434.61 331.21 1446.17 327.053 1453.72 318.74C1461.23 310.427 1464.99 299.18 1464.99 284.968Z" fill="#1A1A1A"/>
</svg>
